<mxfile host="Electron" modified="2024-05-31T12:30:45.866Z" agent="Mozilla/5.0 (Windows NT 10.0; Win64; x64) AppleWebKit/537.36 (KHTML, like Gecko) draw.io/24.4.8 Chrome/124.0.6367.207 Electron/30.0.6 Safari/537.36" etag="g_JxVmkPoymzfypTdsAN" version="24.4.8" type="device">
  <diagram name="第 1 页" id="DNwWSseMJjnDS3e5h9JO">
    <mxGraphModel dx="454" dy="318" grid="1" gridSize="1" guides="1" tooltips="1" connect="1" arrows="1" fold="1" page="1" pageScale="1" pageWidth="827" pageHeight="1169" math="1" shadow="0">
      <root>
        <mxCell id="0" />
        <mxCell id="1" parent="0" />
        <mxCell id="YVI3GV2rdjETqO3KnNFN-1" value="" style="verticalLabelPosition=bottom;shadow=0;dashed=0;align=center;fillColor=strokeColor;html=1;verticalAlign=top;strokeWidth=1;shape=mxgraph.electrical.miscellaneous.monocell_battery;rotation=-90;" parent="1" vertex="1">
          <mxGeometry x="10" y="260" width="100" height="60" as="geometry" />
        </mxCell>
        <mxCell id="YVI3GV2rdjETqO3KnNFN-2" value="" style="verticalLabelPosition=bottom;shadow=0;dashed=0;align=center;html=1;verticalAlign=top;shape=mxgraph.electrical.mosfets1.n-channel_mosfet_1;strokeColor=#ff0000;" parent="1" vertex="1">
          <mxGeometry x="130" y="170" width="95" height="100" as="geometry" />
        </mxCell>
        <mxCell id="SbtmeIUXP_cfe8PUE3j3-12" style="edgeStyle=orthogonalEdgeStyle;rounded=0;orthogonalLoop=1;jettySize=auto;html=1;exitX=0.7;exitY=1;exitDx=0;exitDy=0;exitPerimeter=0;endArrow=none;endFill=0;" edge="1" parent="1" source="YVI3GV2rdjETqO3KnNFN-3">
          <mxGeometry relative="1" as="geometry">
            <mxPoint x="196.5" y="430" as="targetPoint" />
          </mxGeometry>
        </mxCell>
        <mxCell id="YVI3GV2rdjETqO3KnNFN-3" value="" style="verticalLabelPosition=bottom;shadow=0;dashed=0;align=center;html=1;verticalAlign=top;shape=mxgraph.electrical.mosfets1.n-channel_mosfet_1;" parent="1" vertex="1">
          <mxGeometry x="130" y="320" width="95" height="100" as="geometry" />
        </mxCell>
        <mxCell id="YVI3GV2rdjETqO3KnNFN-10" style="edgeStyle=orthogonalEdgeStyle;rounded=0;orthogonalLoop=1;jettySize=auto;html=1;exitX=0.7;exitY=0;exitDx=0;exitDy=0;exitPerimeter=0;endArrow=none;endFill=0;" parent="1" source="YVI3GV2rdjETqO3KnNFN-4" edge="1">
          <mxGeometry relative="1" as="geometry">
            <mxPoint x="190" y="150" as="targetPoint" />
            <Array as="points">
              <mxPoint x="347" y="150" />
            </Array>
          </mxGeometry>
        </mxCell>
        <mxCell id="SbtmeIUXP_cfe8PUE3j3-20" style="edgeStyle=orthogonalEdgeStyle;rounded=0;orthogonalLoop=1;jettySize=auto;html=1;exitX=0.7;exitY=1;exitDx=0;exitDy=0;exitPerimeter=0;endArrow=none;endFill=0;startArrow=none;startFill=0;entryX=0.7;entryY=0;entryDx=0;entryDy=0;entryPerimeter=0;" edge="1" parent="1" source="YVI3GV2rdjETqO3KnNFN-4" target="YVI3GV2rdjETqO3KnNFN-5">
          <mxGeometry relative="1" as="geometry">
            <mxPoint x="346" y="298" as="targetPoint" />
          </mxGeometry>
        </mxCell>
        <mxCell id="YVI3GV2rdjETqO3KnNFN-4" value="" style="verticalLabelPosition=bottom;shadow=0;dashed=0;align=center;html=1;verticalAlign=top;shape=mxgraph.electrical.mosfets1.n-channel_mosfet_1;" parent="1" vertex="1">
          <mxGeometry x="280" y="167" width="95" height="100" as="geometry" />
        </mxCell>
        <mxCell id="SbtmeIUXP_cfe8PUE3j3-21" style="edgeStyle=orthogonalEdgeStyle;rounded=0;orthogonalLoop=1;jettySize=auto;html=1;exitX=0.7;exitY=0.012;exitDx=0;exitDy=0;exitPerimeter=0;endArrow=none;endFill=0;startArrow=classic;startFill=1;strokeColor=#0000ff;" edge="1" parent="1" source="YVI3GV2rdjETqO3KnNFN-5">
          <mxGeometry relative="1" as="geometry">
            <mxPoint x="346.53333333333336" y="295.46666666666664" as="targetPoint" />
          </mxGeometry>
        </mxCell>
        <mxCell id="YVI3GV2rdjETqO3KnNFN-5" value="" style="verticalLabelPosition=bottom;shadow=0;dashed=0;align=center;html=1;verticalAlign=top;shape=mxgraph.electrical.mosfets1.n-channel_mosfet_1;strokeColor=#0000ff;" parent="1" vertex="1">
          <mxGeometry x="280" y="320" width="95" height="100" as="geometry" />
        </mxCell>
        <mxCell id="YVI3GV2rdjETqO3KnNFN-11" style="edgeStyle=orthogonalEdgeStyle;rounded=0;orthogonalLoop=1;jettySize=auto;html=1;exitX=0.7;exitY=0;exitDx=0;exitDy=0;exitPerimeter=0;endArrow=none;endFill=0;" parent="1" source="YVI3GV2rdjETqO3KnNFN-6" edge="1">
          <mxGeometry relative="1" as="geometry">
            <mxPoint x="340" y="150" as="targetPoint" />
            <Array as="points">
              <mxPoint x="497" y="150" />
            </Array>
          </mxGeometry>
        </mxCell>
        <mxCell id="YVI3GV2rdjETqO3KnNFN-6" value="" style="verticalLabelPosition=bottom;shadow=0;dashed=0;align=center;html=1;verticalAlign=top;shape=mxgraph.electrical.mosfets1.n-channel_mosfet_1;" parent="1" vertex="1">
          <mxGeometry x="430" y="170" width="95" height="100" as="geometry" />
        </mxCell>
        <mxCell id="YVI3GV2rdjETqO3KnNFN-14" style="edgeStyle=orthogonalEdgeStyle;rounded=0;orthogonalLoop=1;jettySize=auto;html=1;exitX=0.7;exitY=1;exitDx=0;exitDy=0;exitPerimeter=0;endArrow=classic;endFill=1;strokeColor=#0000ff;" parent="1" source="YVI3GV2rdjETqO3KnNFN-8" edge="1">
          <mxGeometry relative="1" as="geometry">
            <mxPoint x="340" y="430" as="targetPoint" />
            <Array as="points">
              <mxPoint x="496" y="430" />
            </Array>
          </mxGeometry>
        </mxCell>
        <mxCell id="YVI3GV2rdjETqO3KnNFN-8" value="" style="verticalLabelPosition=bottom;shadow=0;dashed=0;align=center;html=1;verticalAlign=top;shape=mxgraph.electrical.mosfets1.n-channel_mosfet_1;strokeColor=#0000ff;" parent="1" vertex="1">
          <mxGeometry x="430" y="320" width="95" height="100" as="geometry" />
        </mxCell>
        <mxCell id="YVI3GV2rdjETqO3KnNFN-9" style="edgeStyle=orthogonalEdgeStyle;rounded=0;orthogonalLoop=1;jettySize=auto;html=1;exitX=1;exitY=0.5;exitDx=0;exitDy=0;exitPerimeter=0;entryX=0.7;entryY=0;entryDx=0;entryDy=0;entryPerimeter=0;endArrow=classic;endFill=1;strokeColor=#ff0000;" parent="1" source="YVI3GV2rdjETqO3KnNFN-1" target="YVI3GV2rdjETqO3KnNFN-2" edge="1">
          <mxGeometry relative="1" as="geometry" />
        </mxCell>
        <mxCell id="YVI3GV2rdjETqO3KnNFN-12" style="edgeStyle=orthogonalEdgeStyle;rounded=0;orthogonalLoop=1;jettySize=auto;html=1;exitX=0;exitY=0.5;exitDx=0;exitDy=0;exitPerimeter=0;endArrow=none;endFill=0;startArrow=classic;startFill=1;strokeColor=#0000ff;" parent="1" source="YVI3GV2rdjETqO3KnNFN-1" edge="1">
          <mxGeometry relative="1" as="geometry">
            <mxPoint x="197" y="430" as="targetPoint" />
            <Array as="points">
              <mxPoint x="60" y="430" />
              <mxPoint x="197" y="430" />
            </Array>
          </mxGeometry>
        </mxCell>
        <mxCell id="YVI3GV2rdjETqO3KnNFN-15" style="edgeStyle=orthogonalEdgeStyle;rounded=0;orthogonalLoop=1;jettySize=auto;html=1;exitX=0.7;exitY=1;exitDx=0;exitDy=0;exitPerimeter=0;entryX=0.7;entryY=0;entryDx=0;entryDy=0;entryPerimeter=0;endArrow=none;endFill=0;" parent="1" source="YVI3GV2rdjETqO3KnNFN-2" target="YVI3GV2rdjETqO3KnNFN-3" edge="1">
          <mxGeometry relative="1" as="geometry" />
        </mxCell>
        <mxCell id="YVI3GV2rdjETqO3KnNFN-17" style="edgeStyle=orthogonalEdgeStyle;rounded=0;orthogonalLoop=1;jettySize=auto;html=1;exitX=0.7;exitY=1;exitDx=0;exitDy=0;exitPerimeter=0;entryX=0.7;entryY=0;entryDx=0;entryDy=0;entryPerimeter=0;endArrow=none;endFill=0;" parent="1" source="YVI3GV2rdjETqO3KnNFN-6" target="YVI3GV2rdjETqO3KnNFN-8" edge="1">
          <mxGeometry relative="1" as="geometry" />
        </mxCell>
        <mxCell id="YVI3GV2rdjETqO3KnNFN-24" style="edgeStyle=orthogonalEdgeStyle;rounded=0;orthogonalLoop=1;jettySize=auto;html=1;exitX=0;exitY=0.645;exitDx=0;exitDy=0;exitPerimeter=0;endArrow=none;endFill=0;strokeColor=#0000ff;" parent="1" source="YVI3GV2rdjETqO3KnNFN-19" edge="1">
          <mxGeometry relative="1" as="geometry">
            <mxPoint x="346" y="296" as="targetPoint" />
            <mxPoint x="635.2419684303177" y="206.13674251267028" as="sourcePoint" />
            <Array as="points">
              <mxPoint x="600" y="205" />
              <mxPoint x="600" y="296" />
            </Array>
          </mxGeometry>
        </mxCell>
        <mxCell id="YVI3GV2rdjETqO3KnNFN-19" value="" style="pointerEvents=1;verticalLabelPosition=bottom;shadow=0;dashed=0;align=center;html=1;verticalAlign=top;shape=mxgraph.electrical.inductors.inductor_5;rotation=60;strokeColor=#0000ff;" parent="1" vertex="1">
          <mxGeometry x="605.25" y="240.28" width="99" height="14" as="geometry" />
        </mxCell>
        <mxCell id="YVI3GV2rdjETqO3KnNFN-23" style="edgeStyle=orthogonalEdgeStyle;rounded=0;orthogonalLoop=1;jettySize=auto;html=1;exitX=1;exitY=0.645;exitDx=0;exitDy=0;exitPerimeter=0;endArrow=none;endFill=0;startArrow=classic;startFill=1;strokeColor=#ff0000;" parent="1" edge="1">
          <mxGeometry relative="1" as="geometry">
            <mxPoint x="197" y="270" as="targetPoint" />
            <mxPoint x="774" y="290.74" as="sourcePoint" />
            <Array as="points">
              <mxPoint x="800" y="291" />
              <mxPoint x="800" y="180" />
              <mxPoint x="560" y="180" />
              <mxPoint x="560" y="270" />
            </Array>
          </mxGeometry>
        </mxCell>
        <mxCell id="YVI3GV2rdjETqO3KnNFN-20" value="" style="pointerEvents=1;verticalLabelPosition=bottom;shadow=0;dashed=0;align=center;html=1;verticalAlign=top;shape=mxgraph.electrical.inductors.inductor_5;rotation=0;strokeColor=#ff0000;" parent="1" vertex="1">
          <mxGeometry x="677" y="281.71" width="100" height="14" as="geometry" />
        </mxCell>
        <mxCell id="YVI3GV2rdjETqO3KnNFN-25" style="edgeStyle=orthogonalEdgeStyle;rounded=0;orthogonalLoop=1;jettySize=auto;html=1;endArrow=classic;endFill=1;exitX=0;exitY=0.645;exitDx=0;exitDy=0;exitPerimeter=0;strokeColor=#0000ff;" parent="1" source="YVI3GV2rdjETqO3KnNFN-21" edge="1">
          <mxGeometry relative="1" as="geometry">
            <mxPoint x="496.9999999999998" y="320" as="targetPoint" />
            <mxPoint x="627.7580315696825" y="387.0262701892219" as="sourcePoint" />
            <Array as="points">
              <mxPoint x="600" y="377" />
              <mxPoint x="600" y="320" />
            </Array>
          </mxGeometry>
        </mxCell>
        <mxCell id="YVI3GV2rdjETqO3KnNFN-21" value="" style="pointerEvents=1;verticalLabelPosition=bottom;shadow=0;dashed=0;align=center;html=1;verticalAlign=top;shape=mxgraph.electrical.inductors.inductor_5;rotation=-60;strokeColor=#0000ff;" parent="1" vertex="1">
          <mxGeometry x="601" y="325.71" width="100" height="14" as="geometry" />
        </mxCell>
        <mxCell id="SbtmeIUXP_cfe8PUE3j3-3" value="$$V_{DC}$$" style="text;html=1;align=center;verticalAlign=middle;whiteSpace=wrap;rounded=0;" vertex="1" parent="1">
          <mxGeometry x="90" y="280" width="30" height="30" as="geometry" />
        </mxCell>
        <mxCell id="SbtmeIUXP_cfe8PUE3j3-4" value="$$1$$" style="text;html=1;align=center;verticalAlign=middle;whiteSpace=wrap;rounded=0;fontColor=#ff0000;" vertex="1" parent="1">
          <mxGeometry x="165" y="109" width="60" height="30" as="geometry" />
        </mxCell>
        <mxCell id="SbtmeIUXP_cfe8PUE3j3-5" value="$$0$$" style="text;html=1;align=center;verticalAlign=middle;whiteSpace=wrap;rounded=0;fontColor=#0000ff;" vertex="1" parent="1">
          <mxGeometry x="315" y="109" width="60" height="30" as="geometry" />
        </mxCell>
        <mxCell id="SbtmeIUXP_cfe8PUE3j3-6" value="$$0$$" style="text;html=1;align=center;verticalAlign=middle;whiteSpace=wrap;rounded=0;fontColor=#0000ff;" vertex="1" parent="1">
          <mxGeometry x="465" y="109" width="60" height="30" as="geometry" />
        </mxCell>
        <mxCell id="SbtmeIUXP_cfe8PUE3j3-7" value="$$a$$" style="text;html=1;align=center;verticalAlign=middle;whiteSpace=wrap;rounded=0;fontColor=#ff0000;" vertex="1" parent="1">
          <mxGeometry x="719" y="254.28" width="16" height="20" as="geometry" />
        </mxCell>
        <mxCell id="SbtmeIUXP_cfe8PUE3j3-8" value="$$b$$" style="text;html=1;align=center;verticalAlign=middle;whiteSpace=wrap;rounded=0;fontColor=#0000ff;" vertex="1" parent="1">
          <mxGeometry x="630" y="254.28" width="16" height="20" as="geometry" />
        </mxCell>
        <mxCell id="SbtmeIUXP_cfe8PUE3j3-9" value="$$c$$" style="text;html=1;align=center;verticalAlign=middle;whiteSpace=wrap;rounded=0;fontColor=#0000ff;" vertex="1" parent="1">
          <mxGeometry x="670" y="325.71" width="16" height="20" as="geometry" />
        </mxCell>
        <mxCell id="YVI3GV2rdjETqO3KnNFN-13" style="edgeStyle=orthogonalEdgeStyle;rounded=0;orthogonalLoop=1;jettySize=auto;html=1;exitX=0.7;exitY=1;exitDx=0;exitDy=0;exitPerimeter=0;endArrow=none;endFill=0;startArrow=none;startFill=0;strokeColor=#0000ff;" parent="1" edge="1">
          <mxGeometry relative="1" as="geometry">
            <mxPoint x="190" y="430" as="targetPoint" />
            <Array as="points">
              <mxPoint x="346" y="430" />
            </Array>
            <mxPoint x="346.5" y="420" as="sourcePoint" />
          </mxGeometry>
        </mxCell>
        <mxCell id="SbtmeIUXP_cfe8PUE3j3-23" value="$$a$$" style="text;html=1;align=center;verticalAlign=middle;whiteSpace=wrap;rounded=0;fontColor=#ff0000;" vertex="1" parent="1">
          <mxGeometry x="178" y="295.71" width="16" height="20" as="geometry" />
        </mxCell>
        <mxCell id="SbtmeIUXP_cfe8PUE3j3-24" value="$$b$$" style="text;html=1;align=center;verticalAlign=middle;whiteSpace=wrap;rounded=0;fontColor=#0000ff;" vertex="1" parent="1">
          <mxGeometry x="328" y="295.71" width="16" height="20" as="geometry" />
        </mxCell>
        <mxCell id="SbtmeIUXP_cfe8PUE3j3-25" value="$$c$$" style="text;html=1;align=center;verticalAlign=middle;whiteSpace=wrap;rounded=0;fontColor=#0000ff;" vertex="1" parent="1">
          <mxGeometry x="478" y="295.71" width="16" height="20" as="geometry" />
        </mxCell>
      </root>
    </mxGraphModel>
  </diagram>
</mxfile>
